<svg class="h-full w-full text-content-color-light dark:text-content-color-dark stroke-current" viewBox="0 0 362 490" fill="none" xmlns="http://www.w3.org/2000/svg"><path d="M163.184 9.5927C164.699 7.285 166.771 5.24821 169.4 3.48232C180.266 -3.78693 192.487 1.08933 199.289 11.0526C209.754 26.3536 213.763 42.8236 211.314 60.4624C210.522 66.0912 208.851 71.1431 206.303 75.618C202.736 81.8337 197.905 88.2902 191.659 91.3153C170.859 101.399 154.154 80.1631 151.67 61.3052C149.182 42.2918 153.02 25.0543 163.184 9.5927Z" fill="currentColor"></path><path d="M103.69 71.7502C117.25 71.991 130.781 88.1851 135.913 99.548C140.413 109.526 142.505 121.446 136.996 130.762C132.18 138.889 124.289 142.286 113.322 140.951C97.7754 139.07 87.3757 122.289 86.3072 107.615C85.5547 97.4309 86.6784 88.7921 89.6784 81.6985C92.528 74.9459 97.1985 71.6298 103.69 71.7502Z" fill="currentColor"></path><path d="M223.204 111.588C225.145 99.0961 233.017 85.5359 243.462 77.77C252.371 71.1479 265.059 68.0325 271.681 79.0192C273.497 82.0292 274.766 85.2349 275.489 88.6362C278.995 105.327 275.744 125.449 261.687 135.849C255.758 140.243 249.085 141.964 241.671 141.011C227.117 139.145 221.097 125.178 223.204 111.588Z" fill="currentColor"></path><path d="M180.507 129.724C192.743 129.498 200.824 141.99 203.729 152.616C205.395 158.686 206.177 164.425 206.077 169.833C205.821 183.965 196.987 200.46 181.816 200.731C166.63 201.017 157.209 184.853 156.426 170.751C156.125 165.343 156.697 159.574 158.142 153.443C160.655 142.728 168.271 129.935 180.507 129.724Z" fill="currentColor"></path><path d="M303.783 139.145C310.42 133.441 319.586 128.474 327.878 131.093C333.266 132.789 336.547 137.234 337.721 144.428C339.377 154.541 337.937 164.148 333.402 173.249C327.081 185.936 315.025 194.139 300.803 190.361C287.062 186.734 284.323 172.918 288.838 160.23C291.657 152.304 296.639 145.275 303.783 139.145Z" fill="currentColor"></path><path d="M62.3473 189.292C51.7821 195.087 38.3723 189.443 31.9007 180.368C23.8739 169.12 21.1699 156.588 23.7887 142.772C24.7218 137.786 27.1248 134.234 30.9977 132.117C34.8606 130 39.1449 129.879 43.8506 131.755C56.9142 136.983 66.0296 146.003 71.1969 158.816C75.3658 169.155 72.9276 183.498 62.3473 189.292Z" fill="currentColor"></path><path d="M100.53 186.524C117.627 186.779 132.963 202.808 138.863 217.693C143.438 229.266 139.645 242.33 128.042 247.898C123.095 250.276 117.125 250.542 110.132 248.696C100.665 246.198 94.0734 239.335 88.866 231.027C81.4764 219.243 79.0533 186.223 100.53 186.524Z" fill="currentColor"></path><path d="M269.348 235.978C263.057 243.784 255.347 248.399 246.216 249.824C230.504 252.277 219.758 239.906 221.895 224.811C224.047 209.745 237.818 193.205 252.492 187.576C259.776 184.792 268.776 186.944 273.863 193.31C275.83 195.779 277.229 199.576 278.062 204.703C279.908 216.041 277.004 226.466 269.348 235.978Z" fill="currentColor"></path><path d="M63.8228 277.884C61.9999 280.488 59.4086 282.515 56.1966 283.85C52.9846 285.186 49.215 285.803 45.103 285.667C40.9909 285.531 36.617 284.645 32.2309 283.058C27.8448 281.472 23.5324 279.216 19.5399 276.421C15.5475 273.625 11.9532 270.344 8.96227 266.765C5.97132 263.186 3.6423 259.379 2.10819 255.562C0.574082 251.744 -0.135088 247.991 0.0211962 244.516C0.17748 241.041 1.19614 237.912 3.01902 235.309C4.84189 232.706 7.43331 230.678 10.6453 229.343C13.8572 228.008 17.6268 227.39 21.7389 227.526C25.8509 227.662 30.2249 228.549 34.611 230.135C38.9971 231.722 43.3094 233.977 47.3019 236.772C51.2943 239.568 54.8887 242.849 57.8796 246.428C60.8705 250.007 63.1996 253.814 64.7337 257.631C66.2678 261.449 66.977 265.202 66.8207 268.677C66.6644 272.152 65.6457 275.281 63.8228 277.884Z" fill="currentColor"></path><path d="M358.453 235.209C362.146 240.483 362.48 247.786 359.383 255.513C356.286 263.239 350.011 270.755 341.938 276.408C337.941 279.207 333.622 281.464 329.23 283.051C324.837 284.637 320.456 285.522 316.336 285.655C312.217 285.787 308.44 285.165 305.22 283.823C302.001 282.482 299.403 280.447 297.575 277.836C293.882 272.562 293.547 265.258 296.644 257.532C299.741 249.806 306.017 242.289 314.09 236.637C318.087 233.838 322.405 231.581 326.798 229.994C331.191 228.407 335.572 227.523 339.691 227.39C343.811 227.257 347.588 227.88 350.807 229.221C354.026 230.563 356.624 232.597 358.453 235.209Z" fill="currentColor"></path><path d="M180.318 303.382C177.063 303.325 173.856 302.364 170.88 300.554C167.903 298.745 165.216 296.121 162.972 292.833C160.727 289.546 158.969 285.659 157.797 281.394C156.626 277.129 156.064 272.571 156.144 267.978C156.224 263.386 156.945 258.849 158.264 254.628C159.584 250.407 161.477 246.583 163.835 243.376C166.193 240.169 168.97 237.641 172.008 235.936C175.045 234.231 178.284 233.382 181.538 233.439C184.793 233.496 188 234.457 190.976 236.267C193.953 238.077 196.64 240.7 198.885 243.988C201.129 247.276 202.888 251.163 204.059 255.427C205.23 259.692 205.792 264.251 205.712 268.843C205.632 273.436 204.911 277.972 203.592 282.193C202.272 286.414 200.379 290.238 198.021 293.445C195.663 296.652 192.886 299.181 189.849 300.886C186.811 302.591 183.572 303.439 180.318 303.382Z" fill="currentColor"></path><path d="M133.099 304.802C139.947 313.667 143.483 324.834 137.508 334.903C133.615 341.455 127.771 344.956 119.975 345.408C103.811 346.326 90.7323 333.789 84.5166 319.928C79.1437 307.933 78.8125 287.088 96.1203 284.981C99.331 284.59 102.988 285.016 107.092 286.26C117.296 289.371 125.965 295.552 133.099 304.802Z" fill="currentColor"></path><path d="M235.636 297.187C241.465 291.809 247.806 288.131 254.659 286.155C265.887 282.919 277.897 286.381 279.913 299.068C281.117 306.633 279.928 313.922 276.346 320.936C268.52 336.242 254.253 347.936 236.644 344.565C231.366 343.551 227.127 340.24 223.927 334.632C216.281 321.207 224.815 307.18 235.636 297.187Z" fill="currentColor"></path><path d="M359.048 334.89C361.459 340.856 359.976 348.111 354.926 355.058C349.876 362.006 341.673 368.077 332.12 371.936C327.391 373.847 322.472 375.157 317.646 375.792C312.82 376.427 308.18 376.375 303.991 375.637C299.803 374.899 296.148 373.491 293.236 371.494C290.323 369.496 288.21 366.947 287.016 363.993C284.606 358.027 286.089 350.773 291.139 343.825C296.188 336.878 304.392 330.807 313.944 326.947C318.673 325.036 323.592 323.726 328.418 323.091C333.245 322.456 337.885 322.509 342.073 323.246C346.261 323.984 349.916 325.392 352.829 327.39C355.741 329.387 357.855 331.936 359.048 334.89Z" fill="currentColor"></path><path d="M73.4829 363.501C71.1565 369.53 65.128 373.846 56.7235 375.501C48.319 377.156 38.227 376.014 28.6676 372.325C19.1083 368.637 10.8646 362.704 5.75015 355.832C0.635678 348.961 -0.930648 341.714 1.39575 335.685C3.72218 329.655 9.75073 325.339 18.1552 323.684C26.5597 322.029 36.6517 323.171 46.2111 326.86C55.7704 330.549 64.0141 336.481 69.1285 343.353C74.243 350.224 75.8093 357.472 73.4829 363.501Z" fill="currentColor"></path><path d="M180.494 396.276C177.387 396.249 174.318 395.382 171.462 393.725C168.606 392.068 166.019 389.653 163.848 386.618C161.678 383.583 159.966 379.988 158.812 376.037C157.657 372.086 157.082 367.858 157.119 363.593C157.195 354.979 159.759 346.74 164.249 340.688C168.739 334.636 174.786 331.267 181.061 331.322C184.168 331.349 187.237 332.216 190.093 333.873C192.949 335.53 195.536 337.945 197.707 340.98C199.877 344.015 201.589 347.611 202.743 351.561C203.898 355.512 204.473 359.741 204.436 364.006C204.36 372.619 201.796 380.858 197.306 386.91C192.816 392.962 186.769 396.331 180.494 396.276Z" fill="currentColor"></path><path d="M142.992 411.491C142.317 417.151 137.949 422.135 130.85 425.347C123.75 428.56 114.5 429.737 105.134 428.62C95.7682 427.504 87.0542 424.184 80.9089 419.392C74.7635 414.6 71.6902 408.729 72.3651 403.069C73.04 397.409 77.4078 392.425 84.5076 389.212C91.6074 386 100.858 384.823 110.223 385.939C119.589 387.056 128.303 390.376 134.448 395.167C140.594 399.959 143.667 405.831 142.992 411.491Z" fill="currentColor"></path><path d="M289.722 402.747C290.111 405.549 289.592 408.448 288.195 411.28C286.798 414.112 284.551 416.821 281.581 419.252C278.611 421.683 274.977 423.789 270.886 425.449C266.795 427.109 262.328 428.292 257.739 428.928C248.472 430.214 239.272 429.2 232.164 426.109C225.056 423.018 220.621 418.102 219.836 412.445C219.448 409.643 219.967 406.744 221.363 403.912C222.76 401.08 225.008 398.371 227.978 395.94C230.948 393.509 234.582 391.403 238.672 389.743C242.763 388.082 247.23 386.9 251.819 386.263C261.087 384.977 270.286 385.992 277.394 389.083C284.503 392.174 288.937 397.089 289.722 402.747Z" fill="currentColor"></path><path d="M163.62 428.755C174.537 421.933 185.318 421.717 195.963 428.108C203.418 432.583 206.333 439.998 204.707 450.352C203.102 460.627 200.072 469.852 195.617 478.03C193.435 482.048 190.996 486.172 187.625 488.204C179.694 492.944 173.042 487.587 169.008 480.438C162.657 469.195 156.742 454.371 156.998 441.322C157.118 435.623 159.326 431.434 163.62 428.755Z" fill="currentColor"></path></svg>
